# xmcd CD database file
#
# Track frame offsets:
#	300
#	15314
#	35538
#	57113
#	75523
#	95091
#	115610
#	133989
#	152533
#	173855
#	198390
#	217326
#
# Disc length: 3150 seconds
#
# Revision: 1
# Processed by: cddbd v1.5.2PL0 Copyright (c) Steve Scherf et al.
# Submitted via: CDex 1.70beta3
#
DISCID=9f0c4a0c
DTITLE=さかばと - 幻想、繋がる遥か彼方
DYEAR=2008
DGENRE=Other
TTITLE0=いろは
TTITLE1=雲の上の記憶と空
TTITLE2=悠久、繋がる遥か彼方
TTITLE3=生きては見えず、死しても見れず。
TTITLE4=澄空に浮かぶ
TTITLE5=不可思議な鼓動
TTITLE6=かすみ
TTITLE7=リグレット
TTITLE8=反転する情景
TTITLE9=大地を揺るがす暁の花
TTITLE10=幻想、繋がる遥か彼方
TTITLE11=桜花爛漫
EXTD=YEAR: 2008
EXTT0=
EXTT1=
EXTT2=
EXTT3=
EXTT4=
EXTT5=
EXTT6=
EXTT7=
EXTT8=
EXTT9=
EXTT10=
EXTT11=
PLAYORDER=
